<svg width="177" height="166" viewBox="0 0 177 166" fill="none" xmlns="http://www.w3.org/2000/svg">
<path d="M163.033 13.6602C151.087 1.59537 130.381 2.86143 116.102 12.0031C104.248 19.5809 95.0066 38.6463 88.4688 52.964C82.2458 38.5905 72.7076 19.4506 60.8543 12.0031C46.6118 2.86143 25.8871 1.59537 13.9597 13.6602C4.69935 23.0812 3.03248 37.8643 4.55118 51.0463C7.3293 74.8781 23.0719 97.481 38.6294 115.615C54.9832 134.644 88.4132 161.25 88.4873 161.212C88.5614 161.175 121.954 134.644 138.327 115.653C153.958 97.5182 169.627 74.9153 172.386 51.0835C173.961 37.8271 172.349 23.0812 163.033 13.6602Z" stroke="#C76FE7" stroke-width="8" stroke-linecap="round" stroke-linejoin="round"/>
</svg>
