<svg width="200" height="173" viewBox="0 0 200 173" fill="none" xmlns="http://www.w3.org/2000/svg">
<path d="M59.489 167.921L107.524 92.6865L155.769 167.921" stroke="#C76FE7" stroke-width="8" stroke-linecap="round" stroke-linejoin="round"/>
<path d="M108.498 97.6372V168.915" stroke="#C76FE7" stroke-width="8" stroke-linecap="round" stroke-linejoin="round"/>
<path d="M9.61915 60.5362L84.1657 88.4816C85.0919 88.8276 86.0783 88.9834 87.0661 88.9397C88.0538 88.896 89.0226 88.6537 89.9147 88.2273C90.8067 87.8009 91.6037 87.1992 92.258 86.4579C92.9123 85.7167 93.4105 84.8512 93.723 83.9132L108.288 42.473C108.991 40.584 108.919 38.4941 108.088 36.6578C107.258 34.8215 105.736 33.3873 103.854 32.6672L29.3071 4.72181C28.3807 4.37858 27.3948 4.22489 26.4079 4.26985C25.4209 4.31482 24.4531 4.55754 23.5618 4.9836C22.6704 5.40967 21.8737 6.01041 21.2189 6.75018C20.5641 7.48995 20.0645 8.3537 19.7498 9.29018L5.10813 50.7304C4.40975 52.6292 4.49238 54.7273 5.3379 56.5652C6.18342 58.4031 7.72291 59.8311 9.61915 60.5362V60.5362Z" stroke="#C76FE7" stroke-width="8" stroke-linecap="round" stroke-linejoin="round"/>
<path d="M99.8973 88.5965L141.949 104.366C142.877 104.709 143.864 104.862 144.852 104.815C145.84 104.769 146.808 104.525 147.7 104.097C148.591 103.669 149.388 103.066 150.042 102.324C150.696 101.582 151.194 100.717 151.506 99.7785L162.459 68.5836C163.173 66.69 163.107 64.5904 162.276 62.7451C161.445 60.8999 159.916 59.4595 158.024 58.7396L115.973 42.9702C115.046 42.6242 114.06 42.4684 113.072 42.5121C112.084 42.5557 111.116 42.798 110.224 43.2244C109.332 43.6508 108.535 44.2526 107.88 44.9938C107.226 45.735 106.728 46.6005 106.415 47.5385L95.3863 78.7334C94.6962 80.6406 94.7823 82.7425 95.6259 84.587C96.4695 86.4314 98.0032 87.8711 99.8973 88.5965V88.5965Z" stroke="#C76FE7" stroke-width="8" stroke-linecap="round" stroke-linejoin="round"/>
<path d="M159.324 99.8362L181.478 108.151C182.405 108.491 183.392 108.642 184.379 108.594C185.366 108.547 186.334 108.302 187.224 107.874C188.115 107.447 188.912 106.845 189.566 106.105C190.22 105.364 190.72 104.5 191.035 103.564L195.164 91.9037C195.84 90.0133 195.756 87.9338 194.929 86.1042C194.102 84.2747 192.596 82.8382 190.729 82.098L168.556 73.7832C167.63 73.4372 166.644 73.2814 165.656 73.3251C164.668 73.3687 163.699 73.611 162.807 74.0374C161.915 74.4638 161.118 75.0656 160.464 75.8068C159.81 76.548 159.311 77.4135 158.999 78.3515L154.87 90.0305C154.169 91.9219 154.243 94.0139 155.078 95.8506C155.912 97.6873 157.438 99.1199 159.324 99.8362V99.8362Z" stroke="#C76FE7" stroke-width="8" stroke-linecap="round" stroke-linejoin="round"/>
</svg>
