<svg width="92" height="94" viewBox="0 0 92 94" fill="none" xmlns="http://www.w3.org/2000/svg">
<path d="M62.1328 6.94647C63.7897 6.94647 65.1328 5.60333 65.1328 3.94647C65.1328 2.28962 63.7897 0.946472 62.1328 0.946472C60.476 0.946472 59.1328 2.28962 59.1328 3.94647C59.1328 5.60333 60.476 6.94647 62.1328 6.94647Z" fill="#251F44"/>
<path d="M34.1328 93.9465C35.7897 93.9465 37.1328 92.6033 37.1328 90.9465C37.1328 89.2896 35.7897 87.9465 34.1328 87.9465C32.476 87.9465 31.1328 89.2896 31.1328 90.9465C31.1328 92.6033 32.476 93.9465 34.1328 93.9465Z" fill="#251F44"/>
<path d="M19.6328 86.9465C20.4612 86.9465 21.1328 86.2749 21.1328 85.4465C21.1328 84.618 20.4612 83.9465 19.6328 83.9465C18.8044 83.9465 18.1328 84.618 18.1328 85.4465C18.1328 86.2749 18.8044 86.9465 19.6328 86.9465Z" fill="#251F44"/>
<path d="M25.6328 93.9465C26.4612 93.9465 27.1328 93.2749 27.1328 92.4465C27.1328 91.618 26.4612 90.9465 25.6328 90.9465C24.8044 90.9465 24.1328 91.618 24.1328 92.4465C24.1328 93.2749 24.8044 93.9465 25.6328 93.9465Z" fill="#251F44"/>
<path d="M71.6328 4.94647C72.4612 4.94647 73.1328 4.2749 73.1328 3.44647C73.1328 2.61805 72.4612 1.94647 71.6328 1.94647C70.8044 1.94647 70.1328 2.61805 70.1328 3.44647C70.1328 4.2749 70.8044 4.94647 71.6328 4.94647Z" fill="#251F44"/>
<path d="M78.6328 17.9465C79.4612 17.9465 80.1328 17.2749 80.1328 16.4465C80.1328 15.618 79.4612 14.9465 78.6328 14.9465C77.8044 14.9465 77.1328 15.618 77.1328 16.4465C77.1328 17.2749 77.8044 17.9465 78.6328 17.9465Z" fill="#251F44"/>
<path d="M51.6328 85.9465C52.4612 85.9465 53.1328 85.2749 53.1328 84.4465C53.1328 83.618 52.4612 82.9465 51.6328 82.9465C50.8044 82.9465 50.1328 83.618 50.1328 84.4465C50.1328 85.2749 50.8044 85.9465 51.6328 85.9465Z" fill="#251F44"/>
<path d="M42.6328 9.94647C43.4612 9.94647 44.1328 9.2749 44.1328 8.44647C44.1328 7.61805 43.4612 6.94647 42.6328 6.94647C41.8044 6.94647 41.1328 7.61805 41.1328 8.44647C41.1328 9.2749 41.8044 9.94647 42.6328 9.94647Z" fill="#251F44"/>
<path d="M54.9629 40.0265C53.3729 38.4265 50.6129 38.5965 48.7129 39.8065C47.1329 40.8065 45.9029 43.3365 45.0329 45.2365C44.2029 43.3365 42.9329 40.8065 41.3529 39.8065C39.4529 38.5965 36.6929 38.4265 35.1029 40.0265C33.8629 41.2765 33.6429 43.2265 33.8529 44.9765C34.2229 48.1365 36.3029 51.1265 38.3929 53.5265C40.5829 56.0465 45.0229 59.5665 45.0329 59.5665C45.0429 59.5665 49.4829 56.0465 51.6729 53.5265C53.7529 51.1265 55.8429 48.1265 56.2129 44.9765C56.4129 43.2265 56.2129 41.2765 54.9629 40.0265Z" stroke="#251F44" stroke-width="5" stroke-linecap="round" stroke-linejoin="round"/>
<path d="M81.2427 8.77646C98.8327 24.8965 83.3827 56.3665 67.0227 68.3565C53.9327 77.9465 31.9527 83.0465 20.5527 74.6865C11.4427 67.9965 14.4727 50.2765 23.1927 40.6565C34.3727 28.3265 58.1927 21.5365 65.2827 31.4665C67.7427 34.9165 67.0827 44.9465 56.2327 49.2165" stroke="#251F44" stroke-width="5" stroke-linecap="round" stroke-linejoin="round"/>
<path d="M12.0028 83.3965C-2.27719 72.9965 1.46281 47.6565 14.4828 32.0965C27.5028 16.5365 54.4428 6.42647 70.5528 18.1465C79.5928 24.7265 79.9128 40.9965 67.2528 56.1265C56.5628 68.8865 36.0628 71.0365 29.1128 65.9765C23.6928 62.0265 27.4728 51.5065 33.8828 49.5365" stroke="#251F44" stroke-width="5" stroke-linecap="round" stroke-linejoin="round"/>
</svg>
