<svg width="46" height="103" viewBox="0 0 46 103" fill="none" xmlns="http://www.w3.org/2000/svg">
<path d="M32.0941 39.8971L13.992 39.8971L8.72582 63.1516C7.70428 66.4185 7.49077 69.8844 8.10361 73.252C8.71646 76.6196 10.4967 79.25 12.2443 82.4856C13.992 85.7213 21.3755 99.1728 21.3755 99.1728C21.5733 99.4263 21.8263 99.6313 22.1153 99.7724C22.4042 99.9134 22.7215 99.9867 23.043 99.9867C23.3646 99.9867 23.6819 99.9134 23.9708 99.7724C24.2598 99.6313 24.5128 99.4263 24.7106 99.1728C24.7106 99.1728 32.0941 85.7163 33.8418 82.4856C35.5894 79.255 37.3696 76.6196 37.9825 73.252C38.5953 69.8844 37.9825 66.7322 37.3603 63.1516L32.0941 39.8971ZM32.0941 39.8971L40.6708 29.846C40.6708 29.846 47.9574 46.6438 35.618 55.4576L32.0941 39.8971ZM9.18415 55.762C-1.14551 44.2865 4.89583 28.846 4.89583 28.846L13.4725 39.8971M29.7532 25.3663C32.0941 17.0957 21.0552 15.7709 23.6353 2.70726C15.0248 9.16508 14.2935 22.3073 16.9817 26.6125C19.6699 30.9177 27.4123 33.6368 29.7532 25.3663Z" stroke="#C76FE7" stroke-width="5" stroke-linecap="round" stroke-linejoin="round"/>
<path d="M22.9738 62.6855C24.8439 62.6855 26.6374 63.4283 27.9597 64.7507C29.282 66.073 30.0249 67.8665 30.0249 69.7365C30.0249 71.6066 29.282 73.4001 27.9597 74.7224C26.6374 76.0447 24.8439 76.7876 22.9738 76.7876C21.1038 76.7876 19.3103 76.0447 17.9879 74.7224C16.6656 73.4001 15.9227 71.6066 15.9227 69.7365C15.9227 67.8665 16.6656 66.073 17.9879 64.7507C19.3103 63.4283 21.1038 62.6855 22.9738 62.6855Z" stroke="#C76FE7" stroke-width="5" stroke-linecap="round" stroke-linejoin="round"/>
</svg>
