<svg width="221" height="273" viewBox="0 0 221 273" fill="none" xmlns="http://www.w3.org/2000/svg">
<circle cx="96.8269" cy="212.394" r="34.1864" fill="#251F44" stroke="#C76FE7" stroke-width="2.89477"/>
<path d="M69.2075 218.647C69.2075 220.075 76.6811 227.216 77.6153 227.692C78.5495 228.168 89.2928 221.979 91.1612 220.551C93.0296 219.123 97.7006 214.839 95.3651 208.174L101.904 206.27L90.6941 194.844L88.8257 201.509C88.8257 201.509 83.6876 199.129 79.4837 202.937C75.2798 206.746 69.2075 218.647 69.2075 218.647Z" stroke="#C76FE7" stroke-width="2.56057" stroke-linecap="round" stroke-linejoin="round"/>
<path d="M82.7206 200.919C82.7206 200.919 83.9117 192.793 77.4424 194.869C70.6461 197.049 75.8309 204.909 74.1026 210.193" stroke="#C76FE7" stroke-width="2.56057" stroke-linecap="round" stroke-linejoin="round"/>
<path d="M96.2991 225.312C98.8682 225.312 98.8682 228.169 101.437 228.169C104.006 228.169 104.006 225.312 106.575 225.312C109.144 225.312 109.144 228.169 111.713 228.169C114.282 228.169 114.282 225.312 116.851 225.312C119.421 225.312 119.421 228.169 121.99 228.169" stroke="#C76FE7" stroke-width="2.56057" stroke-linecap="round" stroke-linejoin="round"/>
<path d="M96.2991 231.025C98.8682 231.025 98.8682 233.881 101.437 233.881C104.006 233.881 104.006 231.025 106.575 231.025C109.144 231.025 109.144 233.881 111.713 233.881C114.282 233.881 114.282 231.025 116.851 231.025C119.421 231.025 119.421 233.881 121.99 233.881" stroke="#C76FE7" stroke-width="2.56057" stroke-linecap="round" stroke-linejoin="round"/>
<path d="M97.2334 196.273C97.2334 196.273 97.2334 191.512 101.904 191.512C106.575 191.512 107.51 195.797 107.51 197.225V221.028" stroke="#C76FE7" stroke-width="2.56057" stroke-linecap="round" stroke-linejoin="round"/>
<path d="M105.174 188.18C107.977 188.18 111.714 191.513 111.714 197.701V217.696" stroke="#C76FE7" stroke-width="2.56057" stroke-linecap="round" stroke-linejoin="round"/>
<path d="M53.4509 172.884H53.3466C53.2309 173.255 53.0919 173.666 52.9298 174.117C52.7793 174.569 52.623 175.044 52.4609 175.542C52.2987 176.028 52.1424 176.514 51.9919 177.001L51.6793 178.564C51.6098 178.784 51.5403 179.015 51.4708 179.259C51.4129 179.502 51.3493 179.739 51.2798 179.971C51.2103 180.202 51.1466 180.422 51.0887 180.631C51.0308 180.839 50.9729 181.036 50.915 181.221C50.7877 181.256 50.6429 181.291 50.4808 181.325C50.3187 181.372 50.1277 181.395 49.9077 181.395C49.4213 181.395 49.0508 181.308 48.7961 181.134C48.5413 180.961 48.414 180.706 48.414 180.37C48.414 180.231 48.4313 180.086 48.4661 179.936C48.5124 179.785 48.5645 179.612 48.6224 179.415C48.7266 179.033 48.8713 178.552 49.0566 177.973C49.2534 177.394 49.4619 176.769 49.6819 176.097C49.9135 175.414 50.145 174.743 50.3766 174.083C50.6198 173.423 50.8398 172.815 51.0366 172.259C51.245 171.703 51.4129 171.269 51.5403 170.956C51.7024 170.852 51.9572 170.76 52.3045 170.678C52.6635 170.586 53.0166 170.539 53.364 170.539C53.8619 170.539 54.3077 170.615 54.7014 170.765C55.0951 170.904 55.344 171.13 55.4483 171.443C55.6683 172.056 55.9056 172.768 56.1604 173.579C56.4267 174.378 56.693 175.217 56.9593 176.097C57.2256 176.977 57.4804 177.834 57.7235 178.668C57.9783 179.49 58.1983 180.231 58.3835 180.891C58.2562 181.03 58.0709 181.146 57.8278 181.239C57.5846 181.343 57.2951 181.395 56.9593 181.395C56.4846 181.395 56.1488 181.308 55.9519 181.134C55.7551 180.961 55.6046 180.7 55.5004 180.353L54.9446 178.407L54.6493 176.931C54.5103 176.41 54.3656 175.906 54.2151 175.42C54.0646 174.934 53.9256 174.476 53.7982 174.048C53.6709 173.608 53.5551 173.22 53.4509 172.884ZM50.5156 178.876L51.5403 176.827H55.6046L55.9519 178.876H50.5156ZM68.2319 172.12C68.2319 172.386 68.1624 172.618 68.0234 172.815C67.8845 173.012 67.7282 173.168 67.5545 173.284C67.265 173.087 66.935 172.913 66.5645 172.763C66.2055 172.612 65.7771 172.537 65.2792 172.537C64.6655 172.537 64.1329 172.67 63.6813 172.936C63.2297 173.203 62.8823 173.591 62.6392 174.1C62.4076 174.61 62.2918 175.229 62.2918 175.959C62.2918 177.07 62.5697 177.915 63.1255 178.494C63.6813 179.073 64.4455 179.363 65.4181 179.363C65.916 179.363 66.3445 179.293 66.7034 179.154C67.0624 179.015 67.3924 178.859 67.6934 178.685C67.8671 178.813 68.0061 178.981 68.1103 179.189C68.2261 179.386 68.284 179.617 68.284 179.884C68.284 180.115 68.2203 180.33 68.0929 180.526C67.9771 180.723 67.7745 180.891 67.485 181.03C67.265 181.146 66.9524 181.256 66.5471 181.36C66.1418 181.464 65.6497 181.516 65.0708 181.516C64.0518 181.516 63.1197 181.32 62.2744 180.926C61.4407 180.521 60.7807 179.913 60.2944 179.102C59.8081 178.28 59.5649 177.232 59.5649 175.959C59.5649 174.754 59.8023 173.741 60.277 172.919C60.7634 172.085 61.4118 171.454 62.2223 171.026C63.0329 170.597 63.9302 170.383 64.9145 170.383C65.5976 170.383 66.1882 170.464 66.6861 170.626C67.184 170.777 67.5661 170.985 67.8324 171.252C68.0987 171.506 68.2319 171.796 68.2319 172.12Z" fill="#C76FE7"/>
<circle cx="183.848" cy="103.941" r="34.1864" fill="#251F44" stroke="#C76FE7" stroke-width="2.89477"/>
<path d="M183.993 91.9756V122.449" stroke="#C76FE7" stroke-width="2.56057" stroke-miterlimit="10" stroke-linecap="round"/>
<path d="M167.942 94.8537C167.942 94.8537 175.308 90.8989 183.993 90.8989C192.677 90.8989 200.044 94.8537 200.044 94.8537" stroke="#C76FE7" stroke-width="2.56057" stroke-miterlimit="10" stroke-linecap="round"/>
<path d="M174.253 108.104L167.871 98.667L161.489 108.104C161.489 111.669 164.348 114.561 167.871 114.561C171.395 114.561 174.253 111.669 174.253 108.104V108.104Z" stroke="#C76FE7" stroke-width="2.56057" stroke-linecap="round" stroke-linejoin="round"/>
<path d="M161.49 108.104H174.254" stroke="#C76FE7" stroke-width="2.56057" stroke-linecap="round" stroke-linejoin="round"/>
<path d="M206.207 108.104L199.825 98.667L193.443 108.104C193.443 111.669 196.302 114.561 199.825 114.561C203.349 114.561 206.207 111.669 206.207 108.104Z" stroke="#C76FE7" stroke-width="2.56057" stroke-linecap="round" stroke-linejoin="round"/>
<path d="M193.443 108.104H206.207" stroke="#C76FE7" stroke-width="2.56057" stroke-linecap="round" stroke-linejoin="round"/>
<path d="M184.067 87.7679C185.518 87.7679 186.694 86.5783 186.694 85.1108C186.694 83.6433 185.518 82.4536 184.067 82.4536C182.617 82.4536 181.441 83.6433 181.441 85.1108C181.441 86.5783 182.617 87.7679 184.067 87.7679Z" fill="#C76FE7"/>
<path d="M177.427 122.532H190.559" stroke="#C76FE7" stroke-width="2.56057" stroke-miterlimit="10" stroke-linecap="round"/>
<path d="M145.835 77.3705C150.449 77.3705 154.189 73.6302 154.189 69.0163C154.189 64.4024 150.449 60.6621 145.835 60.6621C141.221 60.6621 137.481 64.4024 137.481 69.0163C137.481 73.6302 141.221 77.3705 145.835 77.3705Z" fill="#251F44" stroke="#C76FE7" stroke-width="2.53292" stroke-linecap="round" stroke-linejoin="round"/>
<path d="M145.717 70.7819C146.627 70.7819 147.365 70.0444 147.365 69.1346C147.365 68.2248 146.627 67.4873 145.717 67.4873C144.807 67.4873 144.07 68.2248 144.07 69.1346C144.07 70.0444 144.807 70.7819 145.717 70.7819Z" fill="#C76FE7"/>
<circle cx="49.3203" cy="46.3745" r="34.1864" fill="#251F44" stroke="#C76FE7" stroke-width="2.89477"/>
<path d="M58.3349 51.0998C60.6387 48.46 62.9424 43.9346 62.5584 42.4261C62.1745 40.9176 58.7189 31.8667 55.2632 31.8667C51.8076 31.8667 50.2718 33.3752 48.9279 33.4695H48.7782C47.4343 33.3752 45.8985 31.8667 42.4428 31.8667C38.9872 31.8667 35.5316 40.9176 35.1476 42.4261C34.7636 43.9346 37.0674 48.46 39.3711 51.0998" stroke="#C76FE7" stroke-width="2.56057" stroke-miterlimit="10" stroke-linecap="round"/>
<path d="M56.4153 48.8369C56.4153 48.8369 58.7191 51.0996 58.7191 53.7395C58.7191 56.3793 57.1833 58.642 54.4955 58.642C51.8078 58.642 50.272 57.6766 48.9281 54.9538H48.7784C47.4345 57.6766 45.8987 58.642 43.211 58.642C40.5233 58.642 38.9874 56.3793 38.9874 53.7395C38.9874 51.0996 41.2912 48.8369 41.2912 48.8369" stroke="#C76FE7" stroke-width="2.56057" stroke-miterlimit="10" stroke-linecap="round"/>
<path d="M54.4956 58.6421C54.4956 58.6421 54.8796 61.478 48.9282 61.5685H48.7785C42.8271 61.478 43.2111 58.6421 43.2111 58.6421" stroke="#C76FE7" stroke-width="2.56057" stroke-miterlimit="10" stroke-linecap="round"/>
<path d="M48.9704 53.932L47.638 51.6656L46.3057 49.4028H48.9704H51.6312L50.2989 51.6656L48.9704 53.932Z" stroke="#C76FE7" stroke-width="2.56057" stroke-linecap="round" stroke-linejoin="round"/>
<path d="M53.0019 45.2543C53.8501 45.2543 54.5377 44.5789 54.5377 43.7458C54.5377 42.9127 53.8501 42.2373 53.0019 42.2373C52.1537 42.2373 51.466 42.9127 51.466 43.7458C51.466 44.5789 52.1537 45.2543 53.0019 45.2543Z" fill="#C76FE7"/>
<path d="M44.1711 45.2543C45.0193 45.2543 45.7069 44.5789 45.7069 43.7458C45.7069 42.9127 45.0193 42.2373 44.1711 42.2373C43.3229 42.2373 42.6352 42.9127 42.6352 43.7458C42.6352 44.5789 43.3229 45.2543 44.1711 45.2543Z" fill="#C76FE7"/>
<path d="M48.8553 69.4166C50.6138 69.4166 52.3647 69.1376 54.0426 68.5153C55.7819 67.8742 57.3792 66.9088 58.8613 65.8264C65.02 61.3349 69.8272 53.7209 70.5605 46.3105C71.2939 38.9 68.4488 31.071 62.2017 26.6964C58.5695 24.1509 54.5187 23.3325 48.7747 23.3325C43.0306 23.3325 39.0682 24.1509 35.4321 26.6964C29.1889 31.071 26.3438 38.8963 27.0733 46.3105C27.8067 53.7246 32.6138 61.3349 38.7725 65.8264C40.2585 66.9088 41.8519 67.8742 43.5912 68.5153C45.2653 69.1338 47.0161 69.4166 48.7785 69.4166H48.8553Z" stroke="#C76FE7" stroke-width="2.56057" stroke-miterlimit="10"/>
<path d="M59.7209 36.0149C59.7209 36.0149 60.8728 33.7522 63.9445 34.5065C63.9445 34.5065 64.7124 37.1463 61.2568 38.2777" stroke="#C76FE7" stroke-width="2.56057" stroke-miterlimit="10"/>
<path d="M37.9048 36.0149C37.9048 36.0149 36.7529 33.7522 33.6812 34.5065C33.6812 34.5065 32.9133 37.1463 36.3689 38.2777" stroke="#C76FE7" stroke-width="2.56057" stroke-miterlimit="10"/>
<path d="M10.4568 13.4003C8.67945 10.624 9.26481 6.98248 11.2394 4.54346C9.96493 4.65845 8.74097 5.09699 7.68349 5.81751C6.62601 6.53803 5.77005 7.51666 5.19673 8.66065C4.62342 9.80464 4.35173 11.0761 4.40744 12.3545C4.46314 13.6329 4.84439 14.8759 5.51504 15.9657C6.18569 17.0554 7.12354 17.9559 8.23968 18.5817C9.35582 19.2075 10.6133 19.5379 11.8929 19.5416C13.1725 19.5453 14.4319 19.2222 15.5516 18.6029C16.6713 17.9835 17.6144 17.0885 18.2913 16.0026C15.6148 16.5731 12.1026 15.9729 10.4568 13.4003Z" fill="#251F44" stroke="#C76FE7" stroke-width="2.53292" stroke-linecap="round" stroke-linejoin="round"/>
</svg>
