<svg width="59" height="60" viewBox="0 0 59 60" fill="none" xmlns="http://www.w3.org/2000/svg">
<g filter="url(#filter0_d_386_13121)">
<circle cx="29.4467" cy="27.7075" r="26.9331" fill="#251F44"/>
<circle cx="29.4467" cy="27.7075" r="26.185" stroke="#C76FE7" stroke-width="1.49628"/>
</g>
<g clip-path="url(#clip0_386_13121)">
<path d="M27.4168 37.2597C32.3349 37.2597 36.3218 33.2728 36.3218 28.3547C36.3218 23.4366 32.3349 19.4497 27.4168 19.4497C22.4987 19.4497 18.5118 23.4366 18.5118 28.3547C18.5118 33.2728 22.4987 37.2597 27.4168 37.2597Z" stroke="#C76FE7" stroke-width="2.07093" stroke-linecap="round" stroke-linejoin="round"/>
<path d="M32.3612 35.6158C32.3612 35.6158 27.0544 34.1274 25.0353 29.3642C23.0161 24.6011 25.9154 19.6309 25.9154 19.6309" stroke="#C76FE7" stroke-width="2.07093" stroke-linecap="round" stroke-linejoin="round"/>
<path d="M28.6464 16.0587L29.1124 12.3569" stroke="#C76FE7" stroke-width="2.07093" stroke-linecap="round" stroke-linejoin="round"/>
<path d="M34.6263 18.3236L36.8784 15.3467" stroke="#C76FE7" stroke-width="2.07093" stroke-linecap="round" stroke-linejoin="round"/>
<path d="M38.6775 23.2805L42.1204 21.8179" stroke="#C76FE7" stroke-width="2.07093" stroke-linecap="round" stroke-linejoin="round"/>
<path d="M39.713 29.584L43.4148 30.0499" stroke="#C76FE7" stroke-width="2.07093" stroke-linecap="round" stroke-linejoin="round"/>
<path d="M37.4479 35.564L40.4249 37.8161" stroke="#C76FE7" stroke-width="2.07093" stroke-linecap="round" stroke-linejoin="round"/>
<path d="M32.4906 39.6152L33.9532 43.0582" stroke="#C76FE7" stroke-width="2.07093" stroke-linecap="round" stroke-linejoin="round"/>
</g>
<defs>
<filter id="filter0_d_386_13121" x="0.185995" y="0.774414" width="58.5214" height="58.5213" filterUnits="userSpaceOnUse" color-interpolation-filters="sRGB">
<feFlood flood-opacity="0" result="BackgroundImageFix"/>
<feColorMatrix in="SourceAlpha" type="matrix" values="0 0 0 0 0 0 0 0 0 0 0 0 0 0 0 0 0 0 127 0" result="hardAlpha"/>
<feOffset dy="2.32755"/>
<feGaussianBlur stdDeviation="1.16378"/>
<feComposite in2="hardAlpha" operator="out"/>
<feColorMatrix type="matrix" values="0 0 0 0 0 0 0 0 0 0 0 0 0 0 0 0 0 0 0.25 0"/>
<feBlend mode="normal" in2="BackgroundImageFix" result="effect1_dropShadow_386_13121"/>
<feBlend mode="normal" in="SourceGraphic" in2="effect1_dropShadow_386_13121" result="shape"/>
</filter>
<clipPath id="clip0_386_13121">
<rect width="26.9739" height="32.7725" fill="white" transform="translate(17.4764 11.3213)"/>
</clipPath>
</defs>
</svg>
