<svg width="267" height="45" viewBox="0 0 267 45" fill="none" xmlns="http://www.w3.org/2000/svg">
<path d="M22.1042 41.6519C32.7811 41.6519 41.4365 32.9966 41.4365 22.3196C41.4365 11.6427 32.7811 2.9873 22.1042 2.9873C11.4272 2.9873 2.77185 11.6427 2.77185 22.3196C2.77185 32.9966 11.4272 41.6519 22.1042 41.6519Z" stroke="#C76FE7" stroke-width="4" stroke-linecap="round" stroke-linejoin="round"/>
<path d="M21.8316 26.4033C23.9369 26.4033 25.6436 24.6966 25.6436 22.5913C25.6436 20.486 23.9369 18.7793 21.8316 18.7793C19.7263 18.7793 18.0196 20.486 18.0196 22.5913C18.0196 24.6966 19.7263 26.4033 21.8316 26.4033Z" fill="#C76FE7"/>
<path d="M172.363 41.7362C181.253 41.7362 188.46 34.5296 188.46 25.6398C188.46 16.7501 181.253 9.54346 172.363 9.54346C163.474 9.54346 156.267 16.7501 156.267 25.6398C156.267 34.5296 163.474 41.7362 172.363 41.7362Z" stroke="#C76FE7" stroke-width="4" stroke-miterlimit="10"/>
<path d="M183.742 14.2618L194.254 3.75586" stroke="#C76FE7" stroke-width="4" stroke-miterlimit="10" stroke-linecap="round"/>
<path d="M195.103 15.5432V2.90137H182.876" stroke="#C76FE7" stroke-width="4" stroke-linecap="round" stroke-linejoin="round"/>
<path d="M98.6002 25.7888C94.0585 18.6945 95.5543 9.38889 100.6 3.15625C97.3434 3.4501 94.2157 4.57073 91.5134 6.41193C88.8112 8.25313 86.6239 10.7539 85.1588 13.6772C83.6938 16.6006 82.9995 19.8496 83.1419 23.1164C83.2842 26.3832 84.2584 29.5595 85.9722 32.3444C87.686 35.1292 90.0825 37.4302 92.9347 39.0294C95.7869 40.6286 99.0002 41.4729 102.27 41.4824C105.54 41.4918 108.758 40.6661 111.619 39.0834C114.481 37.5008 116.891 35.2137 118.62 32.4388C111.781 33.8967 102.806 32.3629 98.6002 25.7888Z" stroke="#C76FE7" stroke-width="4" stroke-linecap="round" stroke-linejoin="round"/>
<path d="M250.794 29.7597C258.425 29.7597 264.612 23.573 264.612 15.9414C264.612 8.30972 258.425 2.12305 250.794 2.12305C243.162 2.12305 236.975 8.30972 236.975 15.9414C236.975 23.573 243.162 29.7597 250.794 29.7597Z" stroke="#C76FE7" stroke-width="4" stroke-miterlimit="10"/>
<path d="M250.794 29.7598V42.5151" stroke="#C76FE7" stroke-width="4" stroke-miterlimit="10" stroke-linecap="round"/>
<path d="M244.15 36.1377H257.437" stroke="#C76FE7" stroke-width="4" stroke-miterlimit="10" stroke-linecap="round"/>
</svg>
