<svg width="178" height="155" viewBox="0 0 178 155" fill="none" xmlns="http://www.w3.org/2000/svg">
<g clip-path="url(#clip0_434_11928)">
<path d="M89.1741 36.3486V150.292" stroke="#C76FE7" stroke-width="8" stroke-miterlimit="10" stroke-linecap="round"/>
<path d="M28.605 47.112C28.605 47.112 56.4037 32.3247 89.1741 32.3247C121.945 32.3247 149.743 47.112 149.743 47.112" stroke="#C76FE7" stroke-width="8" stroke-miterlimit="10" stroke-linecap="round"/>
<path d="M52.4229 96.6572L28.3406 61.3696L4.2583 96.6572C4.2583 109.987 15.0441 120.8 28.3406 120.8C41.6371 120.8 52.4229 109.987 52.4229 96.6572V96.6572Z" stroke="#C76FE7" stroke-width="8" stroke-linecap="round" stroke-linejoin="round"/>
<path d="M4.2583 96.6572H52.4229" stroke="#C76FE7" stroke-width="8" stroke-linecap="round" stroke-linejoin="round"/>
<path d="M173 96.6572L148.917 61.3696L124.835 96.6572C124.835 109.987 135.621 120.8 148.917 120.8C162.214 120.8 173 109.987 173 96.6572Z" stroke="#C76FE7" stroke-width="8" stroke-linecap="round" stroke-linejoin="round"/>
<path d="M124.835 96.6572H173" stroke="#C76FE7" stroke-width="8" stroke-linecap="round" stroke-linejoin="round"/>
<path d="M89.4548 20.6175C94.9282 20.6175 99.3653 16.1693 99.3653 10.6821C99.3653 5.19485 94.9282 0.746582 89.4548 0.746582C83.9815 0.746582 79.5444 5.19485 79.5444 10.6821C79.5444 16.1693 83.9815 20.6175 89.4548 20.6175Z" fill="#C76FE7"/>
<path d="M64.3979 150.607H113.95" stroke="#C76FE7" stroke-width="8" stroke-miterlimit="10" stroke-linecap="round"/>
</g>
<defs>
<clipPath id="clip0_434_11928">
<rect width="177" height="154" fill="white" transform="translate(0.128906 0.746582)"/>
</clipPath>
</defs>
</svg>
